<svg width="24" height="20" viewBox="0 0 24 20" fill="none" xmlns="http://www.w3.org/2000/svg">
<path d="M12 0C12.9283 0 13.8185 0.508619 14.4749 1.41397C15.1313 2.31932 15.5 3.54723 15.5 4.82759C15.5 6.10794 15.1313 7.33586 14.4749 8.24121C13.8185 9.14655 12.9283 9.65517 12 9.65517C11.0717 9.65517 10.1815 9.14655 9.52513 8.24121C8.86875 7.33586 8.5 6.10794 8.5 4.82759C8.5 3.54723 8.86875 2.31932 9.52513 1.41397C10.1815 0.508619 11.0717 0 12 0ZM5 3.44828C5.56 3.44828 6.08 3.65517 6.53 4.02759C6.38 6 6.8 7.95862 7.66 9.48966C7.16 10.8138 6.16 11.7241 5 11.7241C4.20435 11.7241 3.44129 11.2882 2.87868 10.5122C2.31607 9.73615 2 8.68365 2 7.58621C2 6.48876 2.31607 5.43626 2.87868 4.66025C3.44129 3.88423 4.20435 3.44828 5 3.44828ZM19 3.44828C19.7956 3.44828 20.5587 3.88423 21.1213 4.66025C21.6839 5.43626 22 6.48876 22 7.58621C22 8.68365 21.6839 9.73615 21.1213 10.5122C20.5587 11.2882 19.7956 11.7241 19 11.7241C17.84 11.7241 16.84 10.8138 16.34 9.48966C17.2119 7.93713 17.6166 5.98096 17.47 4.02759C17.92 3.65517 18.44 3.44828 19 3.44828ZM5.5 17.5862C5.5 14.731 8.41 12.4138 12 12.4138C15.59 12.4138 18.5 14.731 18.5 17.5862V20H5.5V17.5862ZM0 20V17.931C0 16.0138 1.89 14.4 4.45 13.931C3.86 14.869 3.5 16.1655 3.5 17.5862V20H0ZM24 20H20.5V17.5862C20.5 16.1655 20.14 14.869 19.55 13.931C22.11 14.4 24 16.0138 24 17.931V20Z" fill="white"/>
</svg>
