<svg width="26" height="24" viewBox="0 0 26 24" fill="none" xmlns="http://www.w3.org/2000/svg">
<path d="M24.7 0H5.2C4.51044 0 3.84912 0.252856 3.36152 0.702944C2.87393 1.15303 2.6 1.76348 2.6 2.4V6H0V8.4H2.6V10.8H0V13.2H2.6V15.6H0V18H2.6V21.6C2.6 22.2365 2.87393 22.847 3.36152 23.2971C3.84912 23.7471 4.51044 24 5.2 24H24.7C25.0448 24 25.3754 23.8736 25.6192 23.6485C25.863 23.4235 26 23.1183 26 22.8V1.2C26 0.88174 25.863 0.576515 25.6192 0.351472C25.3754 0.126428 25.0448 0 24.7 0ZM14.3 3.5988C16.4424 3.5988 18.2 5.22 18.2 7.1988C18.1962 8.15262 17.7842 9.0664 17.0536 9.74097C16.3231 10.4155 15.3333 10.7962 14.3 10.8C12.1589 10.8 10.4 9.1764 10.4 7.1988C10.4 5.22 12.1589 3.5988 14.3 3.5988ZM22.1 19.2H6.5V18.3C6.5 15.6372 10.0165 12.9 14.3 12.9C18.5835 12.9 22.1 15.6372 22.1 18.3V19.2Z" fill="white"/>
</svg>
