<svg width="26" height="24" viewBox="0 0 26 24" fill="none" xmlns="http://www.w3.org/2000/svg">
<path d="M19.42 5.53548L13.7 0.27309C13.5133 0.0992747 13.2594 0.00104711 12.9942 8.32311e-06C12.7291 -0.00103046 12.4743 0.0952046 12.286 0.26755L12.28 0.27309L6.58 5.53548H1C0.734784 5.53548 0.48043 5.63275 0.292893 5.80588C0.105357 5.97902 0 6.21385 0 6.4587V23.0768C0 23.3216 0.105357 23.5565 0.292893 23.7296C0.48043 23.9027 0.734784 24 1 24H25C25.2652 24 25.5196 23.9027 25.7071 23.7296C25.8946 23.5565 26 23.3216 26 23.0768V6.4587C26 6.21385 25.8946 5.97902 25.7071 5.80588C25.5196 5.63275 25.2652 5.53548 25 5.53548H19.42ZM13 2.23033L16.58 5.53548H9.42L13 2.23033ZM24 22.1535H2V7.38193H24V22.1535ZM8 12.9213C7.46957 12.9213 6.96086 12.7267 6.58579 12.3805C6.21071 12.0342 6 11.5645 6 11.0748C6 10.5851 6.21071 10.1155 6.58579 9.7692C6.96086 9.42292 7.46957 9.22838 8 9.22838C8.53043 9.22838 9.03914 9.42292 9.41421 9.7692C9.78929 10.1155 10 10.5851 10 11.0748C10 11.5645 9.78929 12.0342 9.41421 12.3805C9.03914 12.7267 8.53043 12.9213 8 12.9213ZM22 20.3071H7L10 14.7677L12.5 19.3839L17 11.0748L22 20.3071Z" fill="white"/>
</svg>
