<svg width="26" height="24" viewBox="0 0 26 24" fill="none" xmlns="http://www.w3.org/2000/svg">
<path d="M12.6553 6.22623L4.33368 14.362V23.1428C4.33368 23.3701 4.40976 23.5882 4.54519 23.7489C4.68063 23.9097 4.86431 24 5.05584 24L10.1137 23.9845C10.3046 23.9833 10.4874 23.8925 10.622 23.7319C10.7567 23.5712 10.8323 23.3538 10.8323 23.1272V17.9993C10.8323 17.772 10.9084 17.5539 11.0438 17.3932C11.1792 17.2324 11.3629 17.1421 11.5544 17.1421H14.4431C14.6346 17.1421 14.8183 17.2324 14.9538 17.3932C15.0892 17.5539 15.1653 17.772 15.1653 17.9993V23.1235C15.165 23.2363 15.1834 23.348 15.2196 23.4523C15.2558 23.5567 15.3089 23.6515 15.376 23.7314C15.4431 23.8113 15.5228 23.8746 15.6106 23.9179C15.6983 23.9611 15.7924 23.9834 15.8874 23.9834L20.9435 24C21.135 24 21.3187 23.9097 21.4542 23.7489C21.5896 23.5882 21.6657 23.3701 21.6657 23.1428V14.3561L13.3459 6.22623C13.2481 6.13264 13.1262 6.08161 13.0006 6.08161C12.8749 6.08161 12.7531 6.13264 12.6553 6.22623ZM25.8001 11.756L22.0268 8.06394V0.642929C22.0268 0.472414 21.9697 0.308882 21.8681 0.18831C21.7665 0.0677371 21.6288 0 21.4851 0H18.9576C18.8139 0 18.6761 0.0677371 18.5746 0.18831C18.473 0.308882 18.4159 0.472414 18.4159 0.642929V4.53318L14.375 0.586673C13.9872 0.207869 13.5005 0.000757234 12.9983 0.000757234C12.4961 0.000757234 12.0095 0.207869 11.6217 0.586673L0.196564 11.756C0.141719 11.8098 0.0963433 11.8759 0.0630297 11.9505C0.0297162 12.0251 0.0091177 12.1068 0.0024112 12.1909C-0.00429529 12.275 0.00302166 12.3598 0.023944 12.4406C0.0448663 12.5213 0.0789839 12.5963 0.124347 12.6614L1.2753 14.3223C1.32054 14.3876 1.37619 14.4417 1.43905 14.4814C1.50192 14.5212 1.57077 14.5458 1.64166 14.5539C1.71256 14.562 1.7841 14.5534 1.8522 14.5287C1.92031 14.5039 1.98363 14.4635 2.03854 14.4096L12.6553 4.02956C12.7531 3.93597 12.8749 3.88494 13.0006 3.88494C13.1262 3.88494 13.2481 3.93597 13.3459 4.02956L23.9631 14.4096C24.0179 14.4635 24.0811 14.504 24.1491 14.5288C24.2171 14.5537 24.2886 14.5623 24.3594 14.5544C24.4303 14.5464 24.4991 14.522 24.562 14.4824C24.6248 14.4429 24.6805 14.389 24.7259 14.3239L25.8768 12.663C25.9221 12.5976 25.9561 12.5221 25.9768 12.4411C25.9974 12.36 26.0044 12.2748 25.9973 12.1906C25.9902 12.1063 25.9691 12.0245 25.9352 11.9499C25.9014 11.8753 25.8554 11.8094 25.8001 11.756Z" fill="white"/>
</svg>
