<svg width="118" height="43" viewBox="0 0 118 43" fill="none" xmlns="http://www.w3.org/2000/svg">
<path d="M15.077 43L0.902344 31.9185C63.6278 27.9784 105.081 37.6645 117.967 43C59.762 32.0132 25.1216 38.4222 15.077 43Z" fill="white"/>
<path d="M5.08887 25.3164C5.37012 25.2227 5.74512 25.0703 6.21387 24.8594C6.68262 24.6367 7.18066 24.3027 7.70801 23.8574C8.23535 23.4004 8.7627 22.7969 9.29004 22.0469C9.81738 21.2969 10.2861 20.3359 10.6963 19.1641C10.8135 18.8477 10.9775 18.3848 11.1885 17.7754C11.3994 17.166 11.6396 16.4688 11.9092 15.6836C12.1787 14.8984 12.4717 14.0488 12.7881 13.1348C13.1045 12.2207 13.415 11.3008 13.7197 10.375C14.0361 9.44922 14.3408 8.54688 14.6338 7.66797C14.9268 6.77734 15.1846 5.96875 15.4072 5.24219C15.6416 4.50391 15.835 3.87695 15.9873 3.36133C16.1396 2.83398 16.2275 2.46484 16.251 2.25391C16.251 2.16016 16.2158 2.04297 16.1455 1.90234C16.0752 1.76172 16.0107 1.67383 15.9521 1.63867C15.3779 1.67383 14.8096 1.72656 14.2471 1.79688C13.6963 1.86719 13.1865 1.98438 12.7178 2.14844C12.5654 2.20703 12.4014 2.30664 12.2256 2.44727C12.0498 2.57617 11.8857 2.74023 11.7334 2.93945C11.5811 3.13867 11.4521 3.36133 11.3467 3.60742C11.2529 3.8418 11.2061 4.08203 11.2061 4.32812C11.2061 4.48047 11.2178 4.67383 11.2412 4.9082C11.2646 5.13086 11.3115 5.35938 11.3818 5.59375L11.1709 5.80469C10.5732 5.37109 10.0986 4.91992 9.74707 4.45117C9.39551 3.9707 9.21973 3.52539 9.21973 3.11523C9.21973 2.88086 9.2959 2.62305 9.44824 2.3418C9.6123 2.06055 9.81152 1.80273 10.0459 1.56836C10.2803 1.32227 10.5322 1.11719 10.8018 0.953125C11.0713 0.789062 11.3115 0.707031 11.5225 0.707031C12.249 0.707031 13.0107 0.736328 13.8076 0.794922C14.6162 0.853516 15.5127 0.882812 16.4971 0.882812C16.708 0.882812 16.9482 0.882812 17.2178 0.882812C17.499 0.871094 17.7803 0.859375 18.0615 0.847656C18.3545 0.824219 18.6357 0.806641 18.9053 0.794922C19.1748 0.783203 19.415 0.765625 19.626 0.742188L19.7314 1.23438C19.5791 1.63281 19.3623 2.24219 19.0811 3.0625C18.8115 3.88281 18.501 4.83203 18.1494 5.91016C17.7979 6.97656 17.417 8.125 17.0068 9.35547C16.6084 10.5859 16.2041 11.8164 15.7939 13.0469C15.3955 14.2773 15.0088 15.4668 14.6338 16.6152C14.2588 17.7637 13.9189 18.7832 13.6143 19.6738C13.333 20.5293 12.9463 21.2734 12.4541 21.9062C11.9736 22.5391 11.4463 23.0781 10.8721 23.5234C10.3096 23.9688 9.72363 24.332 9.11426 24.6133C8.5166 24.8945 7.9541 25.1172 7.42676 25.2812C6.91113 25.457 6.4541 25.5801 6.05566 25.6504C5.65723 25.7207 5.38184 25.7676 5.22949 25.791L5.08887 25.3164Z" fill="white"/>
<path d="M19.633 25.2461C19.3752 25.2461 19.1174 25.1641 18.8596 25C18.6018 24.8242 18.3674 24.6074 18.1564 24.3496C17.9455 24.0801 17.7756 23.7871 17.6467 23.4707C17.5061 23.1543 17.4357 22.8496 17.4357 22.5566C17.4357 22.2051 17.4826 21.8066 17.5764 21.3613C17.6584 20.916 17.7697 20.4531 17.9104 19.9727C18.0393 19.4922 18.1857 19.0176 18.3498 18.5488C18.5139 18.0801 18.6721 17.6523 18.8244 17.2656C18.965 16.8672 19.0939 16.5273 19.2111 16.2461C19.3166 15.9648 19.3928 15.7773 19.4396 15.6836C19.674 15.1211 20.0373 14.5762 20.5295 14.0488C21.0334 13.5215 21.5783 13.0527 22.1643 12.6426C22.7619 12.2324 23.3596 11.9043 23.9572 11.6582C24.5666 11.4121 25.0998 11.2891 25.5568 11.2891C25.9318 11.2891 26.2365 11.4941 26.4709 11.9043C26.7053 12.3145 26.8225 12.8301 26.8225 13.4512C26.8225 13.7676 26.7463 14.0781 26.5939 14.3828C26.4533 14.6875 26.2658 14.9746 26.0314 15.2441C25.8088 15.5137 25.5627 15.7656 25.2932 16C25.0354 16.2344 24.7893 16.4395 24.5549 16.6152L20.8811 19.4277C20.6701 20.2246 20.4943 20.9336 20.3537 21.5547C20.2248 22.1641 20.1604 22.5801 20.1604 22.8027C20.1604 23.1426 20.2072 23.4004 20.301 23.5762C20.3947 23.752 20.5881 23.8398 20.8811 23.8398C21.5021 23.8398 22.1467 23.5352 22.8146 22.9258C23.4826 22.3047 24.133 21.3145 24.7658 19.9551L25.2756 20.2891C24.9592 21.0273 24.59 21.7012 24.1682 22.3105C23.758 22.9199 23.3127 23.4414 22.8322 23.875C22.3518 24.3086 21.8361 24.6484 21.2854 24.8945C20.7463 25.1289 20.1955 25.2461 19.633 25.2461ZM24.2736 12.291C24.0393 12.291 23.7873 12.4727 23.5178 12.8359C23.2482 13.1992 22.9787 13.6738 22.7092 14.2598C22.4396 14.834 22.176 15.4902 21.9182 16.2285C21.6604 16.9551 21.426 17.6816 21.215 18.4082L24.2033 16.0352C24.3439 15.5312 24.4729 15.0391 24.59 14.5586C24.7072 14.0664 24.7658 13.6973 24.7658 13.4512C24.7658 13.3223 24.7541 13.1934 24.7307 13.0645C24.7189 12.9238 24.6955 12.7949 24.6604 12.6777C24.6252 12.5605 24.5725 12.4668 24.5021 12.3965C24.4436 12.3262 24.3674 12.291 24.2736 12.291Z" fill="white"/>
<path d="M31.0834 23.8398C31.7045 23.8398 32.349 23.5352 33.017 22.9258C33.685 22.3047 34.3354 21.3145 34.9682 19.9551L35.4779 20.2891C35.1615 21.0273 34.7924 21.7012 34.3705 22.3105C33.9604 22.9199 33.515 23.4414 33.0346 23.875C32.5541 24.3086 32.0385 24.6484 31.4877 24.8945C30.9486 25.1289 30.3979 25.2461 29.8354 25.2461C29.5775 25.2461 29.3197 25.1582 29.0619 24.9824C28.8041 24.8066 28.5697 24.584 28.3588 24.3145C28.1479 24.0449 27.9779 23.7578 27.849 23.4531C27.7084 23.1367 27.6381 22.8379 27.6381 22.5566C27.6381 22.2051 27.6791 21.8066 27.7611 21.3613C27.8432 20.916 27.9486 20.4531 28.0775 19.9727C28.2064 19.4922 28.3471 19.0176 28.4994 18.5488C28.6518 18.0801 28.7982 17.6523 28.9389 17.2656C29.0795 16.8672 29.2025 16.5273 29.308 16.2461C29.4135 15.9648 29.4896 15.7773 29.5365 15.6836C29.7709 15.1211 30.1166 14.5762 30.5736 14.0488C31.0307 13.5215 31.5404 13.0527 32.1029 12.6426C32.6772 12.2324 33.2689 11.9043 33.8783 11.6582C34.4994 11.4121 35.0912 11.2891 35.6537 11.2891C35.8412 11.2891 36.0229 11.3477 36.1986 11.4648C36.3744 11.5703 36.5326 11.7227 36.6732 11.9219C36.8139 12.1094 36.9252 12.3379 37.0072 12.6074C37.0893 12.8652 37.1303 13.1465 37.1303 13.4512C37.1303 13.9082 37.06 14.2949 36.9193 14.6113C36.7904 14.9277 36.6264 15.1973 36.4272 15.4199C36.2279 15.6309 36.0053 15.8008 35.7592 15.9297C35.5248 16.0469 35.2963 16.1406 35.0736 16.2109C34.8627 16.2695 34.6752 16.3105 34.5111 16.334C34.3588 16.3457 34.2592 16.3516 34.2123 16.3516C34.3412 16.1055 34.4467 15.8418 34.5287 15.5605C34.6107 15.2793 34.6752 15.0098 34.7221 14.752C34.7807 14.4824 34.8158 14.2363 34.8275 14.0137C34.851 13.791 34.8627 13.6035 34.8627 13.4512C34.8627 13.3223 34.851 13.1934 34.8275 13.0645C34.8158 12.9238 34.7924 12.7949 34.7572 12.6777C34.7221 12.5605 34.6693 12.4668 34.599 12.3965C34.5404 12.3262 34.4643 12.291 34.3705 12.291C34.1713 12.291 33.9604 12.4258 33.7377 12.6953C33.515 12.9531 33.2924 13.3047 33.0697 13.75C32.8471 14.1953 32.6244 14.7051 32.4018 15.2793C32.1791 15.8535 31.9682 16.4512 31.7689 17.0723C31.5697 17.6934 31.3822 18.3145 31.2064 18.9355C31.0424 19.5449 30.8959 20.1133 30.767 20.6406C30.6381 21.1562 30.5385 21.6074 30.4682 21.9941C30.3979 22.3809 30.3627 22.6504 30.3627 22.8027C30.3627 23.1426 30.4271 23.4004 30.5561 23.5762C30.6967 23.752 30.8725 23.8398 31.0834 23.8398Z" fill="white"/>
<path d="M44.485 3.2207C44.485 2.96289 44.4146 2.78711 44.274 2.69336C44.1451 2.58789 43.9811 2.54102 43.7818 2.55273C43.5826 2.56445 43.3658 2.61133 43.1314 2.69336C42.8971 2.76367 42.6803 2.8457 42.4811 2.93945L42.2525 2.46484C43.4479 1.87891 44.4205 1.46875 45.1705 1.23438C45.9322 1 46.4596 0.882812 46.7525 0.882812C46.8346 0.882812 46.9283 0.917969 47.0338 0.988281C47.151 1.04688 47.2564 1.13477 47.3502 1.25195C47.4439 1.36914 47.526 1.50391 47.5963 1.65625C47.6666 1.79688 47.7018 1.94336 47.7018 2.0957C47.7018 2.18945 47.567 2.58203 47.2975 3.27344C47.0279 3.95312 46.7057 4.84961 46.3307 5.96289C46.026 6.91211 45.733 7.80859 45.4518 8.65234C45.1705 9.48438 44.901 10.2871 44.6432 11.0605C44.3854 11.8223 44.1334 12.5605 43.8873 13.2754C43.6412 13.9785 43.3951 14.6816 43.149 15.3848C43.5123 14.916 43.8932 14.4414 44.2916 13.9609C44.69 13.4688 45.0709 13.0293 45.4342 12.6426C45.7975 12.2559 46.1314 11.9395 46.4361 11.6934C46.7525 11.4473 47.0162 11.3242 47.2271 11.3242C47.3092 11.3242 47.4498 11.3652 47.649 11.4473C47.86 11.5176 48.0768 11.6348 48.2994 11.7988C48.5221 11.9512 48.7154 12.1504 48.8795 12.3965C49.0553 12.6309 49.149 12.918 49.1607 13.2578C49.1607 13.375 49.0787 13.6445 48.9146 14.0664C48.7506 14.4883 48.5455 14.9922 48.2994 15.5781C48.065 16.1641 47.8072 16.8027 47.526 17.4941C47.2447 18.1855 46.9811 18.8652 46.735 19.5332C46.5006 20.2012 46.3014 20.8223 46.1373 21.3965C45.9732 21.9707 45.8912 22.4395 45.8912 22.8027C45.8912 22.9434 45.9029 23.0488 45.9264 23.1191C45.9615 23.1777 46.0318 23.207 46.1373 23.207C46.2662 23.1953 46.4596 23.1309 46.7174 23.0137C46.9752 22.8848 47.274 22.6973 47.6139 22.4512C47.9537 22.2051 48.317 21.9062 48.7037 21.5547C49.1021 21.1914 49.4947 20.7695 49.8814 20.2891L50.2857 20.6406C49.7936 21.2617 49.2369 21.8535 48.6158 22.416C48.0064 22.9668 47.4029 23.4531 46.8053 23.875C46.2076 24.2969 45.6451 24.6309 45.1178 24.877C44.5904 25.123 44.1627 25.2461 43.8346 25.2461C43.776 25.2461 43.6998 25.2227 43.6061 25.1758C43.5123 25.1289 43.4186 25.0527 43.3248 24.9473C43.2311 24.8418 43.149 24.6953 43.0787 24.5078C43.0084 24.3203 42.9732 24.0859 42.9732 23.8047C42.9732 23.6641 42.9908 23.4883 43.026 23.2773C43.0611 23.0547 43.1021 22.832 43.149 22.6094C43.1959 22.375 43.2428 22.1641 43.2896 21.9766C43.3482 21.7773 43.3893 21.6309 43.4127 21.5371C43.5182 21.127 43.6646 20.6699 43.8521 20.166C44.0514 19.6504 44.2623 19.1172 44.485 18.5664C44.7076 18.0156 44.9361 17.4707 45.1705 16.9316C45.4049 16.3809 45.6158 15.8711 45.8033 15.4023C45.9908 14.9219 46.1432 14.5059 46.2604 14.1543C46.3775 13.791 46.4361 13.5156 46.4361 13.3281C46.4361 13.1641 46.3893 13.082 46.2955 13.082C46.2135 13.082 46.0904 13.1523 45.9264 13.293C45.7623 13.4219 45.5689 13.5977 45.3463 13.8203C45.1354 14.043 44.9068 14.2949 44.6607 14.5762C44.4146 14.8457 44.1686 15.127 43.9225 15.4199C43.6764 15.7012 43.442 15.9766 43.2193 16.2461C43.0084 16.5039 42.8209 16.7324 42.6568 16.9316C42.2467 18.1387 41.8248 19.3926 41.3912 20.6934C40.9693 21.9824 40.524 23.418 40.0553 25C39.9264 25.0234 39.7857 25.041 39.6334 25.0527C39.3639 25.0879 39.0123 25.1055 38.5787 25.1055C38.3795 25.1055 38.1686 25.0938 37.9459 25.0703C37.7232 25.0586 37.5064 25.0352 37.2955 25L37.1725 24.8242C37.2311 24.707 37.3834 24.3262 37.6295 23.6816C37.8756 23.0254 38.1803 22.1992 38.5436 21.2031C38.8951 20.207 39.2877 19.0879 39.7213 17.8457C40.1432 16.6035 40.5768 15.3379 41.0221 14.0488C41.4674 12.7598 41.8951 11.4941 42.3053 10.252C42.7271 9.00977 43.0963 7.89062 43.4127 6.89453C43.7408 5.88672 43.9986 5.05469 44.1861 4.39844C44.3854 3.74219 44.485 3.34961 44.485 3.2207Z" fill="white"/>
<path d="M52.7889 25C52.66 25.0234 52.5193 25.041 52.367 25.0527C52.0975 25.0879 51.7459 25.1055 51.3123 25.1055C51.1131 25.1055 50.9021 25.0938 50.6795 25.0703C50.4568 25.0586 50.24 25.0352 50.0291 25L49.9061 24.8242C49.9646 24.707 50.0701 24.4668 50.2225 24.1035C50.3631 23.7402 50.533 23.3008 50.7322 22.7852C50.9197 22.2695 51.1307 21.6953 51.365 21.0625C51.5877 20.4297 51.8104 19.7852 52.033 19.1289C52.2557 18.4727 52.4725 17.8281 52.6834 17.1953C52.8943 16.5625 53.076 15.9824 53.2283 15.4551C53.3924 14.9277 53.5213 14.4824 53.615 14.1191C53.7205 13.7441 53.7732 13.4922 53.7732 13.3633C53.7732 13.2344 53.7557 13.1348 53.7205 13.0645C53.6971 12.9941 53.6736 12.9297 53.6502 12.8711C53.615 12.8242 53.5799 12.7773 53.5447 12.7305V12.4668C53.8143 12.3027 54.1307 12.1562 54.4939 12.0273C54.8572 11.8984 55.2088 11.793 55.5486 11.7109C55.9354 11.6172 56.3396 11.5352 56.7615 11.4648L56.8318 11.5703C56.8318 11.7109 56.8025 11.9395 56.7439 12.2559C56.6854 12.5723 56.615 12.9121 56.533 13.2754C56.451 13.6387 56.3631 13.9961 56.2693 14.3477C56.1873 14.6875 56.1229 14.9629 56.076 15.1738C56.4393 14.7168 56.8084 14.2598 57.1834 13.8027C57.5584 13.334 57.9158 12.918 58.2557 12.5547C58.6072 12.1914 58.9295 11.8984 59.2225 11.6758C59.5154 11.4414 59.7615 11.3242 59.9607 11.3242C60.0428 11.3242 60.1834 11.3652 60.3826 11.4473C60.5936 11.5176 60.8104 11.6348 61.033 11.7988C61.2557 11.9512 61.449 12.1504 61.6131 12.3965C61.7889 12.6309 61.8826 12.918 61.8943 13.2578C61.8943 13.375 61.8123 13.6445 61.6482 14.0664C61.4842 14.4883 61.2791 14.9922 61.033 15.5781C60.7986 16.1641 60.5408 16.8027 60.2596 17.4941C59.9783 18.1855 59.7146 18.8652 59.4686 19.5332C59.2342 20.2012 59.035 20.8223 58.8709 21.3965C58.7068 21.9707 58.6248 22.4395 58.6248 22.8027C58.6248 22.9434 58.6365 23.0488 58.66 23.1191C58.6951 23.1777 58.7654 23.207 58.8709 23.207C58.9998 23.1953 59.1932 23.1309 59.451 23.0137C59.7088 22.8848 60.0076 22.6973 60.3475 22.4512C60.6873 22.2051 61.0506 21.9062 61.4373 21.5547C61.8357 21.1914 62.2283 20.7695 62.615 20.2891L63.0193 20.6406C62.5271 21.2617 61.9705 21.8535 61.3494 22.416C60.74 22.9668 60.1365 23.4531 59.5389 23.875C58.9412 24.2969 58.3787 24.6309 57.8514 24.877C57.324 25.123 56.8963 25.2461 56.5682 25.2461C56.5096 25.2461 56.4334 25.2227 56.3396 25.1758C56.2459 25.1289 56.1521 25.0527 56.0584 24.9473C55.9646 24.8418 55.8826 24.6953 55.8123 24.5078C55.742 24.3203 55.7068 24.0859 55.7068 23.8047C55.7068 23.6641 55.7244 23.4883 55.7596 23.2773C55.7947 23.0547 55.8357 22.832 55.8826 22.6094C55.9295 22.375 55.9764 22.1641 56.0232 21.9766C56.0818 21.7773 56.1229 21.6309 56.1463 21.5371C56.2518 21.127 56.3982 20.6699 56.5857 20.166C56.785 19.6504 56.9959 19.1172 57.2186 18.5664C57.4412 18.0156 57.6697 17.4707 57.9041 16.9316C58.1385 16.3809 58.3494 15.8711 58.5369 15.4023C58.7244 14.9219 58.8768 14.5059 58.9939 14.1543C59.1111 13.791 59.1697 13.5156 59.1697 13.3281C59.1697 13.1641 59.1229 13.082 59.0291 13.082C58.9119 13.082 58.7068 13.2109 58.4139 13.4688C58.1326 13.7266 57.8162 14.0488 57.4646 14.4355C57.1248 14.8105 56.7791 15.209 56.4275 15.6309C56.076 16.041 55.7771 16.4043 55.5311 16.7207C55.285 17.4355 55.0271 18.1738 54.7576 18.9355C54.4881 19.6855 54.2303 20.4297 53.9842 21.168C53.7381 21.8945 53.5096 22.5859 53.2986 23.2422C53.0994 23.8984 52.9295 24.4844 52.7889 25Z" fill="white"/>
<path d="M65.3115 15.8594C65.5928 15.1797 65.9385 14.5703 66.3486 14.0312C66.7588 13.4805 67.21 13.0176 67.7022 12.6426C68.1943 12.2559 68.7158 11.9629 69.2666 11.7637C69.8174 11.5645 70.374 11.4648 70.9365 11.4648C71.1826 11.4648 71.4521 11.5352 71.7451 11.6758C72.0498 11.8047 72.3311 11.9863 72.5889 12.2207C72.8467 12.4551 73.0576 12.7422 73.2217 13.082C73.3975 13.4102 73.4854 13.7734 73.4854 14.1719C73.4854 14.5117 73.4443 14.9043 73.3623 15.3496C73.2803 15.7832 73.1748 16.2344 73.0459 16.7031C72.917 17.1602 72.7764 17.6172 72.624 18.0742C72.4717 18.5312 72.3252 18.9531 72.1846 19.3398C72.0439 19.7148 71.915 20.0371 71.7979 20.3066C71.6924 20.5762 71.6162 20.7578 71.5693 20.8516C71.2881 21.543 70.9424 22.1582 70.5322 22.6973C70.1221 23.2363 69.6709 23.6992 69.1787 24.0859C68.6865 24.4609 68.165 24.748 67.6143 24.9473C67.0752 25.1465 66.5244 25.2461 65.9619 25.2461C65.7158 25.2461 65.4463 25.1816 65.1533 25.0527C64.8486 24.9238 64.5674 24.7422 64.3096 24.5078C64.0518 24.2617 63.8408 23.9746 63.6768 23.6465C63.501 23.3184 63.4131 22.9551 63.4131 22.5566C63.4131 22.2051 63.4541 21.8125 63.5361 21.3789C63.6182 20.9336 63.7236 20.4824 63.8525 20.0254C63.9814 19.5566 64.1221 19.0938 64.2744 18.6367C64.4268 18.1797 64.5732 17.7637 64.7139 17.3887C64.8545 17.0137 64.9775 16.6914 65.083 16.4219C65.1885 16.1406 65.2647 15.9531 65.3115 15.8594ZM70.1807 12.4316C69.9111 12.4316 69.6182 12.6719 69.3018 13.1523C68.9971 13.6211 68.6865 14.2246 68.3701 14.9629C68.0654 15.7012 67.7666 16.5098 67.4736 17.3887C67.1924 18.2559 66.9404 19.0938 66.7178 19.9023C66.5068 20.7109 66.3311 21.4258 66.1904 22.0469C66.0615 22.6562 65.9971 23.0664 65.9971 23.2773C65.9971 23.6172 66.0615 23.8633 66.1904 24.0156C66.3193 24.168 66.4951 24.2441 66.7178 24.2441C66.917 24.2441 67.1279 24.1094 67.3506 23.8398C67.5732 23.5586 67.8018 23.1895 68.0361 22.7324C68.2705 22.2754 68.499 21.748 68.7217 21.1504C68.9561 20.5527 69.1787 19.9375 69.3896 19.3047C69.6006 18.6602 69.7939 18.0215 69.9697 17.3887C70.1572 16.7559 70.3154 16.1699 70.4443 15.6309C70.585 15.0918 70.6904 14.6289 70.7607 14.2422C70.8428 13.8438 70.8838 13.5684 70.8838 13.416C70.8838 13.0762 70.8193 12.8301 70.6904 12.6777C70.5615 12.5137 70.3916 12.4316 70.1807 12.4316Z" fill="white"/>
<path d="M83.4416 5.96289C83.1486 6.83008 82.8029 7.82031 82.4045 8.93359C82.0061 10.0352 81.5959 11.1719 81.174 12.3438C80.7639 13.5039 80.3537 14.6582 79.9436 15.8066C79.5334 16.9551 79.1701 18.0039 78.8537 18.9531C78.5373 19.8906 78.2795 20.6934 78.0803 21.3613C77.8811 22.0293 77.7814 22.4629 77.7814 22.6621C77.7814 22.873 77.8693 22.9785 78.0451 22.9785C78.1623 22.9668 78.3498 22.9023 78.6076 22.7852C78.8654 22.6562 79.1643 22.4688 79.5041 22.2227C79.8439 21.9766 80.2072 21.6777 80.5939 21.3262C80.9924 20.9629 81.3908 20.541 81.7893 20.0605L82.176 20.4297C81.6603 21.0508 81.1037 21.6543 80.5061 22.2402C79.9201 22.8145 79.34 23.3242 78.7658 23.7695C78.2033 24.2148 77.676 24.5723 77.1838 24.8418C76.6916 25.1113 76.2814 25.2461 75.9533 25.2461C75.7893 25.2461 75.6545 25.1699 75.549 25.0176C75.4436 24.877 75.3615 24.7012 75.3029 24.4902C75.2326 24.2676 75.1857 24.0332 75.1623 23.7871C75.1389 23.5293 75.1271 23.2949 75.1271 23.084C75.1271 23.0371 75.133 22.9668 75.1447 22.873C75.1447 22.7676 75.1506 22.6562 75.1623 22.5391C75.174 22.4102 75.1916 22.2871 75.215 22.1699C75.2268 22.041 75.2443 21.9297 75.2678 21.8359C75.4904 21.0508 75.7541 20.1953 76.0588 19.2695C76.3518 18.3438 76.6682 17.3887 77.008 16.4043C77.3478 15.4199 77.6994 14.4238 78.0627 13.416C78.426 12.4082 78.7775 11.4355 79.1174 10.498C79.4689 9.54883 79.7971 8.6582 80.1018 7.82617C80.4064 6.98242 80.676 6.23828 80.9103 5.59375C81.1447 4.9375 81.3264 4.4043 81.4553 3.99414C81.5959 3.57227 81.6662 3.31445 81.6662 3.2207C81.6662 2.96289 81.5959 2.78711 81.4553 2.69336C81.3264 2.58789 81.1623 2.54102 80.9631 2.55273C80.7639 2.56445 80.5471 2.61133 80.3127 2.69336C80.0783 2.76367 79.8615 2.8457 79.6623 2.93945L79.4338 2.46484C80.6408 1.87891 81.6076 1.46875 82.3342 1.23438C83.0725 1 83.5822 0.882812 83.8635 0.882812C83.9455 0.882812 84.0393 0.917969 84.1447 0.988281C84.2619 1.04688 84.3674 1.13477 84.4611 1.25195C84.5549 1.36914 84.6369 1.50391 84.7072 1.65625C84.7775 1.79688 84.8127 1.94336 84.8127 2.0957C84.8127 2.18945 84.6779 2.58203 84.4084 3.27344C84.1389 3.95312 83.8166 4.84961 83.4416 5.96289Z" fill="white"/>
<path d="M84.4506 15.8594C84.7318 15.1797 85.0775 14.5703 85.4877 14.0312C85.8979 13.4805 86.349 13.0176 86.8412 12.6426C87.3334 12.2559 87.8549 11.9629 88.4057 11.7637C88.9564 11.5645 89.5131 11.4648 90.0756 11.4648C90.3217 11.4648 90.5912 11.5352 90.8842 11.6758C91.1889 11.8047 91.4701 11.9863 91.7279 12.2207C91.9857 12.4551 92.1967 12.7422 92.3607 13.082C92.5365 13.4102 92.6244 13.7734 92.6244 14.1719C92.6244 14.5117 92.5834 14.9043 92.5014 15.3496C92.4193 15.7832 92.3139 16.2344 92.185 16.7031C92.0561 17.1602 91.9154 17.6172 91.7631 18.0742C91.6107 18.5312 91.4643 18.9531 91.3236 19.3398C91.183 19.7148 91.0541 20.0371 90.9369 20.3066C90.8314 20.5762 90.7553 20.7578 90.7084 20.8516C90.4271 21.543 90.0814 22.1582 89.6713 22.6973C89.2611 23.2363 88.81 23.6992 88.3178 24.0859C87.8256 24.4609 87.3041 24.748 86.7533 24.9473C86.2143 25.1465 85.6635 25.2461 85.101 25.2461C84.8549 25.2461 84.5854 25.1816 84.2924 25.0527C83.9877 24.9238 83.7064 24.7422 83.4486 24.5078C83.1908 24.2617 82.9799 23.9746 82.8158 23.6465C82.64 23.3184 82.5521 22.9551 82.5521 22.5566C82.5521 22.2051 82.5932 21.8125 82.6752 21.3789C82.7572 20.9336 82.8627 20.4824 82.9916 20.0254C83.1205 19.5566 83.2611 19.0938 83.4135 18.6367C83.5658 18.1797 83.7123 17.7637 83.8529 17.3887C83.9936 17.0137 84.1166 16.6914 84.2221 16.4219C84.3275 16.1406 84.4037 15.9531 84.4506 15.8594ZM89.3197 12.4316C89.0502 12.4316 88.7572 12.6719 88.4408 13.1523C88.1361 13.6211 87.8256 14.2246 87.5092 14.9629C87.2045 15.7012 86.9057 16.5098 86.6127 17.3887C86.3314 18.2559 86.0795 19.0938 85.8568 19.9023C85.6459 20.7109 85.4701 21.4258 85.3295 22.0469C85.2006 22.6562 85.1361 23.0664 85.1361 23.2773C85.1361 23.6172 85.2006 23.8633 85.3295 24.0156C85.4584 24.168 85.6342 24.2441 85.8568 24.2441C86.0561 24.2441 86.267 24.1094 86.4896 23.8398C86.7123 23.5586 86.9408 23.1895 87.1752 22.7324C87.4096 22.2754 87.6381 21.748 87.8607 21.1504C88.0951 20.5527 88.3178 19.9375 88.5287 19.3047C88.7396 18.6602 88.933 18.0215 89.1088 17.3887C89.2963 16.7559 89.4545 16.1699 89.5834 15.6309C89.724 15.0918 89.8295 14.6289 89.8998 14.2422C89.9818 13.8438 90.0229 13.5684 90.0229 13.416C90.0229 13.0762 89.9584 12.8301 89.8295 12.6777C89.7006 12.5137 89.5307 12.4316 89.3197 12.4316Z" fill="white"/>
<path d="M102.036 20.7109C101.848 21.332 101.655 21.9941 101.456 22.6973C101.268 23.3887 101.081 24.0859 100.893 24.7891C100.706 25.4922 100.524 26.1777 100.348 26.8457C100.172 27.5254 100.003 28.1465 99.8385 28.709C99.7213 29.1191 99.4986 29.5059 99.1705 29.8691C98.8541 30.2324 98.4791 30.5605 98.0455 30.8535C97.6236 31.1582 97.1725 31.4277 96.692 31.6621C96.2115 31.9082 95.7662 32.1074 95.356 32.2598C94.9459 32.4238 94.5943 32.5469 94.3014 32.6289C94.0084 32.7227 93.8268 32.7695 93.7564 32.7695C93.651 32.7695 93.5103 32.7578 93.3346 32.7344C93.1471 32.7109 93.0006 32.6641 92.8951 32.5938C92.7662 32.5234 92.6256 32.3887 92.4732 32.1895C92.3092 32.002 92.1568 31.7793 92.0162 31.5215C91.8639 31.2637 91.7291 30.9883 91.6119 30.6953C91.483 30.4141 91.3951 30.1504 91.3482 29.9043L93.4752 28.1289C93.6978 28.6914 93.9381 29.1895 94.1959 29.623C94.3014 29.8105 94.4185 29.9922 94.5475 30.168C94.6764 30.3555 94.8111 30.5195 94.9518 30.6602C95.0924 30.8008 95.2389 30.9121 95.3912 30.9941C95.5435 31.0762 95.6959 31.1172 95.8482 31.1172C95.9654 31.1172 96.0709 31.0703 96.1646 30.9766C96.2701 30.8828 96.3639 30.7598 96.4459 30.6074C96.5396 30.4668 96.6275 30.2969 96.7096 30.0977C96.7916 29.9102 96.8736 29.7109 96.9557 29.5C97.0494 29.2305 97.1549 28.9023 97.2721 28.5156C97.401 28.1406 97.5299 27.7305 97.6588 27.2852C97.7994 26.8516 97.9342 26.4004 98.0631 25.9316C98.2037 25.4629 98.3385 25 98.4674 24.543C98.5963 24.0859 98.7135 23.6523 98.8189 23.2422C98.9361 22.8203 99.0357 22.4453 99.1178 22.1172C98.7076 22.6211 98.2799 23.0723 97.8346 23.4707C97.3893 23.8574 96.9674 24.1855 96.5689 24.4551C96.1705 24.7129 95.8189 24.9062 95.5143 25.0352C95.1978 25.1758 94.9693 25.2461 94.8287 25.2461C94.735 25.2461 94.6588 25.2109 94.6002 25.1406C94.5299 25.0703 94.4713 24.9766 94.4244 24.8594C94.3658 24.7422 94.3248 24.6191 94.3014 24.4902C94.2662 24.3613 94.2428 24.2324 94.231 24.1035C94.1959 23.6934 94.2135 23.248 94.2838 22.7676C94.3424 22.2754 94.4303 21.7773 94.5475 21.2734C94.6646 20.7695 94.7994 20.2773 94.9518 19.7969C95.0924 19.3047 95.233 18.8594 95.3736 18.4609C95.5143 18.0508 95.6373 17.7051 95.7428 17.4238C95.8482 17.1426 95.9185 16.9551 95.9537 16.8613C96.0006 16.7207 96.0768 16.5566 96.1822 16.3691C96.2994 16.1699 96.4283 15.9766 96.5689 15.7891C96.7096 15.5898 96.8502 15.4023 96.9908 15.2266C97.1432 15.0391 97.2896 14.875 97.4303 14.7344C97.6881 14.4883 98.0279 14.2246 98.4498 13.9434C98.8834 13.6621 99.3521 13.3867 99.856 13.1172C100.36 12.8477 100.876 12.584 101.403 12.3262C101.942 12.0684 102.452 11.8457 102.932 11.6582C103.413 11.4707 103.84 11.3184 104.215 11.2012C104.59 11.084 104.872 11.0254 105.059 11.0254C105.223 11.0254 105.364 11.0312 105.481 11.043C105.61 11.0547 105.71 11.0723 105.78 11.0957L105.815 11.1836C105.639 11.4062 105.428 11.7754 105.182 12.291C104.948 12.8066 104.702 13.3926 104.444 14.0488C104.186 14.6934 103.922 15.373 103.653 16.0879C103.395 16.8027 103.155 17.4766 102.932 18.1094C102.71 18.7422 102.516 19.293 102.352 19.7617C102.188 20.2305 102.083 20.5469 102.036 20.7109ZM97.1842 22.6973C97.2779 22.6973 97.4127 22.6445 97.5885 22.5391C97.776 22.4336 97.9752 22.2988 98.1861 22.1348C98.3971 21.9707 98.6139 21.7832 98.8365 21.5723C99.0592 21.3496 99.2643 21.127 99.4518 20.9043C99.5689 20.4941 99.6978 20.043 99.8385 19.5508C99.9908 19.0586 100.149 18.5547 100.313 18.0391C100.477 17.5234 100.647 17.0078 100.823 16.4922C100.999 15.9766 101.169 15.4902 101.333 15.0332C101.497 14.5645 101.655 14.1426 101.807 13.7676C101.96 13.3809 102.094 13.0586 102.212 12.8008C102.118 12.8242 101.995 12.8594 101.842 12.9062C101.702 12.9414 101.538 12.9941 101.35 13.0645C101.174 13.123 100.987 13.2051 100.788 13.3105C100.588 13.4043 100.395 13.5215 100.208 13.6621C99.8912 13.9082 99.5924 14.2773 99.3111 14.7695C99.0299 15.2617 98.7721 15.8184 98.5377 16.4395C98.3033 17.0488 98.0865 17.6816 97.8873 18.3379C97.6998 18.9941 97.5357 19.6035 97.3951 20.166C97.2662 20.7285 97.1666 21.209 97.0963 21.6074C97.026 22.0059 96.9908 22.2461 96.9908 22.3281C96.9908 22.4219 96.9967 22.5098 97.0084 22.5918C97.0318 22.6621 97.0904 22.6973 97.1842 22.6973Z" fill="white"/>
<path d="M111.992 28.709C111.887 29.1191 111.676 29.5059 111.359 29.8691C111.043 30.2324 110.679 30.5605 110.269 30.8535C109.859 31.1582 109.426 31.4277 108.969 31.6621C108.512 31.9082 108.084 32.1074 107.685 32.2598C107.287 32.4238 106.947 32.5469 106.666 32.6289C106.373 32.7227 106.191 32.7695 106.121 32.7695C106.015 32.7695 105.875 32.7578 105.699 32.7344C105.512 32.7109 105.365 32.6641 105.26 32.5938C105.131 32.5234 104.978 32.3887 104.803 32.1895C104.627 32.002 104.451 31.7793 104.275 31.5215C104.099 31.2637 103.941 30.9883 103.801 30.6953C103.648 30.4141 103.549 30.1504 103.502 29.9043L105.629 28.1289C105.851 28.6914 106.092 29.1895 106.349 29.623C106.455 29.8105 106.572 29.9922 106.701 30.168C106.83 30.3555 106.965 30.5195 107.105 30.6602C107.246 30.8008 107.392 30.9121 107.545 30.9941C107.697 31.0762 107.849 31.1172 108.002 31.1172C108.119 31.1172 108.224 31.0703 108.318 30.9766C108.424 30.8828 108.517 30.7598 108.599 30.6074C108.693 30.4668 108.781 30.2969 108.863 30.0977C108.945 29.9102 109.027 29.7109 109.109 29.5C109.367 28.8086 109.607 28.1113 109.83 27.4082C110.053 26.7168 110.263 26.0137 110.463 25.2988C110.674 24.584 110.879 23.8574 111.078 23.1191C111.289 22.3809 111.5 21.625 111.711 20.8516C111.336 21.3438 110.937 21.8535 110.515 22.3809C110.105 22.8965 109.701 23.3711 109.303 23.8047C108.916 24.2266 108.553 24.5781 108.213 24.8594C107.873 25.1406 107.597 25.2812 107.387 25.2812C107.304 25.2812 107.158 25.2461 106.947 25.1758C106.736 25.1055 106.525 24.9941 106.314 24.8418C106.092 24.6777 105.892 24.4727 105.717 24.2266C105.541 23.9805 105.447 23.6875 105.435 23.3477C105.435 23.2305 105.512 22.9434 105.664 22.4863C105.804 22.0293 105.992 21.4785 106.226 20.834C106.449 20.1777 106.689 19.4746 106.947 18.7246C107.205 17.9629 107.445 17.2246 107.668 16.5098C107.902 15.7832 108.09 15.1152 108.23 14.5059C108.383 13.8965 108.459 13.4219 108.459 13.082C108.459 12.9883 108.447 12.9062 108.424 12.8359C108.4 12.7656 108.377 12.707 108.353 12.6602C108.318 12.6133 108.283 12.5723 108.248 12.5371V12.291C108.506 12.127 108.816 11.9922 109.179 11.8867C109.543 11.7695 109.894 11.6816 110.234 11.623C110.621 11.5527 111.025 11.5 111.447 11.4648L111.517 11.5703C111.435 12.1914 111.295 12.8828 111.096 13.6445C110.896 14.3945 110.674 15.168 110.428 15.9648C110.181 16.75 109.924 17.5293 109.654 18.3027C109.396 19.0762 109.156 19.791 108.933 20.4473C108.711 21.1035 108.529 21.6836 108.388 22.1875C108.248 22.6797 108.178 23.043 108.178 23.2773C108.178 23.4414 108.224 23.5234 108.318 23.5234C108.412 23.5234 108.558 23.4414 108.758 23.2773C108.957 23.1016 109.185 22.8789 109.443 22.6094C109.701 22.3398 109.971 22.041 110.252 21.7129C110.545 21.3848 110.82 21.0684 111.078 20.7637C111.347 20.4473 111.588 20.1602 111.799 19.9023C112.01 19.6328 112.168 19.4336 112.273 19.3047C112.437 18.7891 112.613 18.2324 112.801 17.6348C112.988 17.0254 113.164 16.4395 113.328 15.877C113.504 15.3145 113.65 14.793 113.767 14.3125C113.896 13.832 113.978 13.457 114.013 13.1875C114.037 13.0586 114.037 12.959 114.013 12.8887C113.99 12.8066 113.961 12.7363 113.926 12.6777C113.879 12.6191 113.832 12.5723 113.785 12.5371V12.291C114.054 12.127 114.371 11.9922 114.734 11.8867C115.097 11.7695 115.449 11.6816 115.789 11.623C116.176 11.5527 116.58 11.5 117.002 11.4648L117.072 11.5703C116.99 11.8398 116.855 12.2676 116.668 12.8535C116.48 13.4277 116.263 14.0898 116.017 14.8398C115.783 15.5781 115.531 16.3633 115.262 17.1953C115.004 18.0156 114.752 18.8066 114.506 19.5684C114.271 20.3184 114.06 21.0039 113.873 21.625C113.697 22.2344 113.574 22.6973 113.504 23.0137L111.992 28.709Z" fill="white"/>
</svg>
