<svg width="800" height="600" viewBox="0 0 609 450" fill="none" xmlns="http://www.w3.org/2000/svg">
<path d="M343.561 121.219C341.927 124.81 339.428 127.421 336.524 128.57C331.518 130.685 336.844 141.337 336.844 141.337C336.844 141.337 334.907 137.464 337.422 133.196C339.937 128.927 344.093 125.921 343.561 121.219Z" fill="#FF6584"/>
<path d="M336.278 153.078C339.81 152.95 342.558 148.767 342.416 143.735C342.274 138.704 339.295 134.729 335.763 134.857C332.231 134.986 329.483 139.169 329.625 144.2C329.768 149.232 332.746 153.207 336.278 153.078Z" fill="#FF6584"/>
<path d="M344.401 151.308C339.109 148.688 330.387 147.579 325.949 148.715L326.381 142.321C330.764 145.327 339.447 146.498 344.834 144.914L344.401 151.308Z" fill="#3F3D56"/>
<path d="M395.201 425.569C495.741 425.569 577.244 415.441 577.244 402.947C577.244 390.454 495.741 380.326 395.201 380.326C294.662 380.326 213.159 390.454 213.159 402.947C213.159 415.441 294.662 425.569 395.201 425.569Z" fill="#3F3D56"/>
<rect x="39.3877" y="171.686" width="270.2" height="222.5" fill="white" stroke="black"/>
<path d="M47.5599 187.432C48.8128 187.432 49.8284 185.985 49.8284 184.2C49.8284 182.416 48.8128 180.969 47.5599 180.969C46.3071 180.969 45.2915 182.416 45.2915 184.2C45.2915 185.985 46.3071 187.432 47.5599 187.432Z" fill="black"/>
<path d="M53.7982 187.432C55.0511 187.432 56.0667 185.985 56.0667 184.2C56.0667 182.416 55.0511 180.969 53.7982 180.969C52.5454 180.969 51.5298 182.416 51.5298 184.2C51.5298 185.985 52.5454 187.432 53.7982 187.432Z" fill="black"/>
<path d="M60.0365 187.432C61.2893 187.432 62.305 185.985 62.305 184.2C62.305 182.416 61.2893 180.969 60.0365 180.969C58.7837 180.969 57.7681 182.416 57.7681 184.2C57.7681 185.985 58.7837 187.432 60.0365 187.432Z" fill="black"/>
<path opacity="0.3" d="M112.778 306.09H79.8853V310.937H112.778V306.09Z" fill="black"/>
<path opacity="0.3" d="M111 316.594H79.8853V321.441H111V316.594Z" fill="black"/>
<path opacity="0.3" d="M102.554 327.096H79.8853V331.943H102.554V327.096Z" fill="black"/>
<g opacity="0.3">
<path opacity="0.3" d="M189.338 306.09H156.445V310.937H189.338V306.09Z" fill="#0F00FF"/>
<path opacity="0.3" d="M187.56 316.592H156.445V321.439H187.56V316.592Z" fill="#0F00FF"/>
<path opacity="0.3" d="M179.114 327.096H156.445V331.943H179.114V327.096Z" fill="#0F00FF"/>
<path opacity="0.3" d="M189.338 306.09H156.445V310.937H189.338V306.09Z" fill="#0F00FF"/>
<path opacity="0.3" d="M187.56 316.592H156.445V321.439H187.56V316.592Z" fill="#0F00FF"/>
<path opacity="0.3" d="M179.114 327.096H156.445V331.943H179.114V327.096Z" fill="#0F00FF"/>
</g>
<path opacity="0.3" d="M242.646 306.09H209.754V310.937H242.646V306.09Z" fill="black"/>
<path opacity="0.3" d="M240.868 316.594H209.754V321.441H240.868V316.594Z" fill="black"/>
<path opacity="0.3" d="M232.423 327.096H209.754V331.943H232.423V327.096Z" fill="black"/>
<path opacity="0.3" d="M117.314 243.074H75.3481V296.395H117.314V243.074Z" fill="#1D0FFD"/>
<path d="M193.874 243.074H151.908V296.395H193.874V243.074Z" fill="#3F3D56"/>
<path d="M247.183 243.074H205.217V296.395H247.183V243.074Z" fill="#3F3D56"/>
<path d="M167.424 296.172L166.87 296.156C166.882 295.283 167.228 274.698 172.917 269.008L173.235 269.653C167.775 275.113 167.426 295.962 167.424 296.172Z" fill="white"/>
<path d="M92.0405 294.811L91.4868 294.795C91.4987 293.922 91.8447 273.336 97.5334 267.646L97.8514 268.292C92.3922 273.752 92.0432 294.601 92.0405 294.811Z" fill="white"/>
<path d="M175.844 268.746C177.373 268.746 178.612 266.981 178.612 264.803C178.612 262.625 177.373 260.859 175.844 260.859C174.315 260.859 173.076 262.625 173.076 264.803C173.076 266.981 174.315 268.746 175.844 268.746Z" fill="white"/>
<path d="M100.461 267.387C101.99 267.387 103.229 265.622 103.229 263.444C103.229 261.266 101.99 259.5 100.461 259.5C98.9318 259.5 97.6924 261.266 97.6924 263.444C97.6924 265.622 98.9318 267.387 100.461 267.387Z" fill="white"/>
<path d="M175.284 278.729C173.844 279.373 172.311 279.468 170.837 279.003C171.773 277.306 173.033 276.03 174.466 275.33C175.899 274.63 177.443 274.535 178.913 275.056C177.95 276.712 176.699 277.979 175.284 278.729Z" fill="white"/>
<path d="M99.9011 277.368C98.4611 278.012 96.9277 278.106 95.4541 277.641C96.3897 275.944 97.6499 274.669 99.0827 273.969C100.515 273.268 102.06 273.173 103.53 273.695C102.567 275.351 101.315 276.617 99.9011 277.368Z" fill="white"/>
<path d="M220.732 296.172L220.179 296.156C220.191 295.283 220.537 274.698 226.225 269.008L226.543 269.653C221.084 275.113 220.735 295.962 220.732 296.172Z" fill="white"/>
<path d="M229.153 268.746C230.681 268.746 231.921 266.981 231.921 264.803C231.921 262.625 230.681 260.859 229.153 260.859C227.624 260.859 226.384 262.625 226.384 264.803C226.384 266.981 227.624 268.746 229.153 268.746Z" fill="white"/>
<path d="M228.592 278.729C227.153 279.373 225.619 279.468 224.146 279.003C225.081 277.306 226.341 276.03 227.774 275.33C229.207 274.63 230.751 274.535 232.221 275.056C231.258 276.712 230.007 277.979 228.592 278.729Z" fill="white"/>
<path d="M309.565 191.525H39.0527V193.141H309.565V191.525Z" fill="#2F2E41"/>
<g clip-path="url(#clip0)">
<path d="M343.561 121.219C341.927 124.81 339.428 127.421 336.524 128.57C331.518 130.685 336.844 141.337 336.844 141.337C336.844 141.337 334.907 137.464 337.422 133.196C339.937 128.927 344.093 125.921 343.561 121.219Z" fill="#FF6584"/>
<path d="M336.278 153.078C339.81 152.95 342.558 148.767 342.416 143.735C342.274 138.704 339.295 134.729 335.763 134.857C332.231 134.986 329.483 139.169 329.625 144.2C329.768 149.232 332.746 153.207 336.278 153.078Z" fill="#FF6584"/>
<path d="M344.401 151.308C339.109 148.688 330.387 147.579 325.949 148.715L326.381 142.321C330.764 145.327 339.447 146.498 344.834 144.914L344.401 151.308Z" fill="#3F3D56"/>
<rect x="39.3877" y="171.686" width="270.2" height="222.5" fill="white" stroke="black"/>
<path d="M47.5599 187.432C48.8128 187.432 49.8284 185.985 49.8284 184.2C49.8284 182.416 48.8128 180.969 47.5599 180.969C46.3071 180.969 45.2915 182.416 45.2915 184.2C45.2915 185.985 46.3071 187.432 47.5599 187.432Z" fill="black"/>
<path d="M53.7982 187.432C55.0511 187.432 56.0667 185.985 56.0667 184.2C56.0667 182.416 55.0511 180.969 53.7982 180.969C52.5454 180.969 51.5298 182.416 51.5298 184.2C51.5298 185.985 52.5454 187.432 53.7982 187.432Z" fill="black"/>
<path d="M60.0365 187.432C61.2893 187.432 62.305 185.985 62.305 184.2C62.305 182.416 61.2893 180.969 60.0365 180.969C58.7837 180.969 57.7681 182.416 57.7681 184.2C57.7681 185.985 58.7837 187.432 60.0365 187.432Z" fill="black"/>
<path opacity="0.3" d="M112.778 306.09H79.8853V310.937H112.778V306.09Z" fill="black"/>
<path opacity="0.3" d="M111 316.594H79.8853V321.441H111V316.594Z" fill="black"/>
<path opacity="0.3" d="M102.554 327.096H79.8853V331.943H102.554V327.096Z" fill="black"/>
<g opacity="0.3">
<path opacity="0.3" d="M189.338 306.09H156.445V310.937H189.338V306.09Z" fill="#0F00FF"/>
<path opacity="0.3" d="M187.56 316.592H156.445V321.439H187.56V316.592Z" fill="#0F00FF"/>
<path opacity="0.3" d="M179.114 327.096H156.445V331.943H179.114V327.096Z" fill="#0F00FF"/>
<path opacity="0.3" d="M189.338 306.09H156.445V310.937H189.338V306.09Z" fill="#0F00FF"/>
<path opacity="0.3" d="M187.56 316.592H156.445V321.439H187.56V316.592Z" fill="#0F00FF"/>
<path opacity="0.3" d="M179.114 327.096H156.445V331.943H179.114V327.096Z" fill="#0F00FF"/>
</g>
<path opacity="0.3" d="M242.646 306.09H209.754V310.937H242.646V306.09Z" fill="black"/>
<path opacity="0.3" d="M240.868 316.594H209.754V321.441H240.868V316.594Z" fill="black"/>
<path opacity="0.3" d="M232.423 327.096H209.754V331.943H232.423V327.096Z" fill="black"/>
<path opacity="0.3" d="M117.314 243.074H75.3481V296.395H117.314V243.074Z" fill="#1D0FFD"/>
<path d="M193.874 243.074H151.908V296.395H193.874V243.074Z" fill="#3F3D56"/>
<path d="M247.183 243.074H205.217V296.395H247.183V243.074Z" fill="#3F3D56"/>
<path d="M167.424 296.172L166.87 296.156C166.882 295.283 167.228 274.698 172.917 269.008L173.235 269.653C167.775 275.113 167.426 295.962 167.424 296.172Z" fill="white"/>
<path d="M92.0405 294.811L91.4868 294.795C91.4987 293.922 91.8447 273.336 97.5334 267.646L97.8514 268.292C92.3922 273.752 92.0432 294.601 92.0405 294.811Z" fill="white"/>
<path d="M175.844 268.746C177.373 268.746 178.612 266.981 178.612 264.803C178.612 262.625 177.373 260.859 175.844 260.859C174.315 260.859 173.076 262.625 173.076 264.803C173.076 266.981 174.315 268.746 175.844 268.746Z" fill="white"/>
<path d="M100.461 267.387C101.99 267.387 103.229 265.622 103.229 263.444C103.229 261.266 101.99 259.5 100.461 259.5C98.9318 259.5 97.6924 261.266 97.6924 263.444C97.6924 265.622 98.9318 267.387 100.461 267.387Z" fill="white"/>
<path d="M175.284 278.729C173.844 279.373 172.311 279.468 170.837 279.003C171.773 277.306 173.033 276.03 174.466 275.33C175.899 274.63 177.443 274.535 178.913 275.056C177.95 276.712 176.699 277.979 175.284 278.729Z" fill="white"/>
<path d="M99.9011 277.368C98.4611 278.012 96.9277 278.106 95.4541 277.641C96.3897 275.944 97.6499 274.669 99.0827 273.969C100.515 273.268 102.06 273.173 103.53 273.695C102.567 275.351 101.315 276.617 99.9011 277.368Z" fill="white"/>
<path d="M220.732 296.172L220.179 296.156C220.191 295.283 220.537 274.698 226.225 269.008L226.543 269.653C221.084 275.113 220.735 295.962 220.732 296.172Z" fill="white"/>
<path d="M229.153 268.746C230.681 268.746 231.921 266.981 231.921 264.803C231.921 262.625 230.681 260.859 229.153 260.859C227.624 260.859 226.384 262.625 226.384 264.803C226.384 266.981 227.624 268.746 229.153 268.746Z" fill="white"/>
<path d="M228.592 278.729C227.153 279.373 225.619 279.468 224.146 279.003C225.081 277.306 226.341 276.03 227.774 275.33C229.207 274.63 230.751 274.535 232.221 275.056C231.258 276.712 230.007 277.979 228.592 278.729Z" fill="white"/>
<path d="M309.565 191.525H39.0527V193.141H309.565V191.525Z" fill="#2F2E41"/>
<path d="M577.244 402.947C577.244 415.44 499.299 447 391.5 447C290.961 447 213.159 415.44 213.159 402.947C213.159 390.453 294.662 407.794 395.201 407.794C495.741 407.794 577.244 390.453 577.244 402.947Z" fill="#3F3D56"/>
<path opacity="0.1" d="M577.244 402.947C577.244 415.44 495.741 453.036 395.201 453.036C294.662 453.036 213.159 415.44 213.159 402.947C213.159 390.453 294.662 407.794 395.201 407.794C495.741 407.794 577.244 390.453 577.244 402.947Z" fill="black"/>
<path d="M325.777 209.879C325.777 209.879 333.563 226.148 331.076 230.72C328.589 235.292 350.814 234.596 350.814 234.596C350.814 234.596 346.796 210.664 347.622 205.093L325.777 209.879Z" fill="#FFB8B8"/>
<path opacity="0.1" d="M325.777 209.879C325.777 209.879 333.563 226.148 331.076 230.72C328.589 235.292 350.814 234.596 350.814 234.596C350.814 234.596 346.796 210.664 347.622 205.093L325.777 209.879Z" fill="black"/>
<path d="M337.642 215.445C350.316 214.985 360.176 199.975 359.665 181.921C359.154 163.866 348.467 149.604 335.793 150.064C323.12 150.525 313.26 165.534 313.77 183.589C314.281 201.643 324.969 215.906 337.642 215.445Z" fill="#FF6584"/>
<path d="M395.703 357.986L396.251 377.366L409.74 372.834L408.218 359.148L395.703 357.986Z" fill="#FFB8B8"/>
<path d="M443.973 359.465L482.201 366.967L473.136 387.504C473.136 387.504 446.13 375.553 439.329 375.8C432.527 376.047 443.973 359.465 443.973 359.465Z" fill="#FFB8B8"/>
<path d="M356.72 323.837C356.72 323.837 383.737 275.973 392.874 278.066C402.012 280.159 406.391 294.549 406.391 294.549L413.525 366.23C413.525 366.23 395.455 369.312 395.387 366.889C395.318 364.467 390.455 312.911 390.455 312.911C390.455 312.911 366.19 397.858 350.444 342.657L356.72 323.837Z" fill="#2F2E41"/>
<path d="M311.699 356.999C311.699 356.999 313.408 397.352 330.481 399.157C347.554 400.961 365.734 381.709 365.734 381.709L395.751 359.707C395.751 359.707 432.801 385.738 443.365 378.079C443.365 378.079 454.222 360.71 446.716 356.133C439.211 351.556 446.149 356.153 446.149 356.153L401.591 325.44C401.591 325.44 392.997 322.519 378.511 331.937C364.025 341.355 344.3 346.114 344.3 346.114L311.699 356.999Z" fill="#2F2E41"/>
<path d="M336.134 217.888C345.526 217.546 352.832 206.424 352.454 193.045C352.075 179.666 344.155 169.097 334.764 169.439C325.372 169.78 318.066 180.902 318.444 194.281C318.823 207.66 326.743 218.229 336.134 217.888Z" fill="#FFB8B8"/>
<path d="M361.741 260.606L361.567 294.561C361.567 294.561 363.39 338.952 358.38 342.368C355.847 344.092 350.759 347.559 346.07 351.318C342.553 354.13 339.26 357.095 337.448 359.61C336.966 360.233 336.556 360.959 336.232 361.764C334.125 367.499 319.365 367.227 315.849 363.313C312.334 359.399 314.853 368.199 312.064 369.917C309.365 371.583 305.2 358.915 306.988 339.709C307.044 339.068 307.111 338.419 307.183 337.762C309.261 319.136 303.918 274.897 304.062 257.723C304.062 256.411 304.122 255.102 304.241 253.804C305.576 240.823 326.53 213.742 330.905 224.795C336.296 238.437 347.422 225.391 349.217 219.029C360.53 217.809 365.046 237.044 365.046 237.044L361.741 260.606Z" fill="#3F3D56"/>
<path d="M410.782 369.563C410.782 369.563 401.85 374.738 398.993 374.033C396.136 373.329 393.393 376.662 393.53 381.507C393.667 386.352 390.586 397.78 395.71 398.402C400.835 399.024 421.761 396.647 426.364 398.905C426.364 398.905 446.793 398.97 444.75 386.92C442.707 374.869 434.227 375.986 434.227 375.986C434.227 375.986 410.942 375.216 410.782 369.563Z" fill="#2F2E41"/>
<path d="M477.169 369.574C477.169 369.574 478.166 364.688 479.866 364.626C481.567 364.565 495.262 367.3 496.939 366.431C498.617 365.562 518.41 363.226 515.397 377.076C512.385 390.927 501.094 392.954 501.094 392.954C501.094 392.954 480.597 390.466 477.786 391.376C474.975 392.287 464.749 391.85 466.335 387.751C467.922 383.652 478.486 375.993 477.169 369.574Z" fill="#2F2E41"/>
<path d="M422.293 255.466L425.919 273.626C425.96 273.829 425.96 274.042 425.921 274.244L413.591 337.554C413.542 337.805 413.434 338.023 413.285 338.172C413.136 338.321 412.955 338.392 412.772 338.373C412.589 338.354 412.415 338.246 412.279 338.068C412.143 337.889 412.054 337.651 412.026 337.392L409.382 312.999C409.365 312.837 409.372 312.672 409.403 312.516L420.75 255.437C420.797 255.199 420.898 254.99 421.037 254.843C421.176 254.696 421.346 254.618 421.52 254.621C421.695 254.624 421.865 254.709 422.004 254.861C422.143 255.013 422.245 255.226 422.293 255.466Z" fill="#D0CDE1"/>
<path d="M421.193 257.05L424.507 272.624L413.685 330.337L410.313 312.718L421.193 257.05Z" fill="#F2F2F2"/>
<path d="M360.918 344.54C361.454 346.567 410.664 342.049 411.123 341.35C411.516 340.481 411.843 339.554 412.099 338.585C412.51 337.205 412.883 335.827 412.883 335.827L410.345 313.824L361.467 313.13C361.467 313.13 360.775 331.88 360.769 340.451C360.723 341.815 360.773 343.185 360.918 344.54Z" fill="#D0CDE1"/>
<path opacity="0.1" d="M404.208 317.035L405.704 336.088L384.171 336.87L383.631 317.783L404.208 317.035Z" fill="black"/>
<path opacity="0.1" d="M376.628 324.18L376.756 324.139L376.381 332.378L364.418 332.812L364.187 324.632L376.628 324.18Z" fill="black"/>
<path opacity="0.1" d="M360.918 344.54C361.454 346.568 410.664 342.049 411.123 341.35C411.516 340.482 411.843 339.555 412.098 338.585L360.769 340.451C360.722 341.816 360.772 343.185 360.918 344.54Z" fill="black"/>
<path d="M337.866 156.868C337.866 156.868 331.77 172.588 316.741 178.936C301.711 185.284 317.701 217.262 317.701 217.262C317.701 217.262 311.886 205.634 319.436 192.821C326.985 180.008 339.463 170.982 337.866 156.868Z" fill="#FF6584"/>
<path d="M338.359 155.908C338.359 155.908 345.237 176.946 352.185 178.706C359.133 180.466 359.561 214.088 348.927 219.518C348.927 219.518 356.228 199.533 349.137 186.566C342.047 173.599 337.508 163.309 338.359 155.908Z" fill="#FF6584"/>
<path opacity="0.1" d="M346.07 351.318C344.777 355.14 343.244 359.116 343.011 360.709C342.854 361.79 340.762 361.243 337.448 359.61C330.801 356.319 319.225 348.648 308.408 340.95C307.91 340.599 307.434 340.183 306.988 339.709C307.044 339.068 307.111 338.419 307.183 337.762C309.261 319.135 303.918 274.896 304.062 257.722L308.821 255.254L318.822 267.823L320.376 322.732C320.376 322.732 345.864 341.206 347.61 342.759C348.5 343.551 347.411 347.349 346.07 351.318Z" fill="black"/>
<path d="M365.877 306.529L381.501 317.278C381.501 317.278 390.182 303.221 396.147 313.512C402.112 323.803 380.098 327.837 380.098 327.837C380.098 327.837 360.643 322.077 359.825 313.216C359.007 304.354 365.877 306.529 365.877 306.529Z" fill="#FFB8B8"/>
<path d="M341.215 337.333L350.376 340.233C350.376 340.233 360.076 322.098 371.028 328.166C381.981 334.235 357.973 348.041 357.973 348.041C357.973 348.041 345.21 358.204 339.88 350.315C334.55 342.425 341.215 337.333 341.215 337.333Z" fill="#FFB8B8"/>
<path d="M358.039 230.025C358.629 230.812 365.046 237.045 365.046 237.045C365.046 237.045 367.615 267.668 365.53 274.21C363.446 280.752 361.745 280.814 363.537 283.982C365.329 287.15 367.527 284.646 365.42 290.38C363.313 296.115 361.023 295.39 362.792 297.751C364.561 300.111 364.017 300.94 364.017 300.94L371.047 308.767C371.047 308.767 367.142 318.388 361.84 317.883C356.538 317.378 350.976 281.206 350.976 281.206L358.039 230.025Z" fill="#3F3D56"/>
<path d="M308.706 251.217L303.674 253.825C303.674 253.825 292.08 325.378 308.293 336.913C324.507 348.449 342.421 359.922 342.896 356.672C343.372 353.421 349.241 340.275 347.495 338.722C345.749 337.169 320.261 318.696 320.261 318.696L318.708 263.786L308.706 251.217Z" fill="#3F3D56"/>
<path opacity="0.1" d="M317.193 280.412L317.155 319.212L347.768 338.308L319.423 319.13L317.193 280.412Z" fill="black"/>
<path d="M325.777 209.879C325.777 209.879 333.563 226.148 331.076 230.72C328.589 235.292 350.814 234.596 350.814 234.596C350.814 234.596 346.796 210.664 347.622 205.093L325.777 209.879Z" fill="#FFB8B8"/>
<path opacity="0.1" d="M325.777 209.879C325.777 209.879 333.563 226.148 331.076 230.72C328.589 235.292 350.814 234.596 350.814 234.596C350.814 234.596 346.796 210.664 347.622 205.093L325.777 209.879Z" fill="black"/>
<path d="M337.642 215.445C350.316 214.985 360.176 199.975 359.665 181.921C359.154 163.866 348.467 149.604 335.793 150.064C323.12 150.525 313.26 165.534 313.77 183.589C314.281 201.643 324.969 215.906 337.642 215.445Z" fill="#FF6584"/>
<path d="M395.703 357.986L396.251 377.366L409.74 372.834L408.218 359.148L395.703 357.986Z" fill="#FFB8B8"/>
<path d="M443.973 359.465L482.201 366.967L473.136 387.504C473.136 387.504 446.13 375.553 439.329 375.8C432.527 376.047 443.973 359.465 443.973 359.465Z" fill="#FFB8B8"/>
<path d="M356.72 323.837C356.72 323.837 383.737 275.973 392.874 278.066C402.012 280.159 406.391 294.549 406.391 294.549L413.525 366.23C413.525 366.23 395.455 369.312 395.387 366.889C395.318 364.467 390.455 312.911 390.455 312.911C390.455 312.911 366.19 397.858 350.444 342.657L356.72 323.837Z" fill="#2F2E41"/>
<path d="M311.699 356.999C311.699 356.999 313.408 397.352 330.481 399.157C347.554 400.961 365.734 381.709 365.734 381.709L395.751 359.707C395.751 359.707 432.801 385.738 443.365 378.079C443.365 378.079 454.222 360.71 446.716 356.133C439.211 351.556 446.149 356.153 446.149 356.153L401.591 325.44C401.591 325.44 392.997 322.519 378.511 331.937C364.025 341.355 344.3 346.114 344.3 346.114L311.699 356.999Z" fill="#2F2E41"/>
<path d="M335.882 217.495C345.273 217.154 352.58 206.031 352.201 192.652C351.823 179.274 343.903 168.705 334.511 169.046C325.12 169.387 317.814 180.51 318.192 193.889C318.57 207.267 326.49 217.836 335.882 217.495Z" fill="#FFB8B8"/>
<path d="M361.741 260.606L361.567 294.561C361.567 294.561 363.39 338.952 358.38 342.368C355.847 344.092 350.759 347.559 346.07 351.318C342.553 354.13 339.26 357.095 337.448 359.61C336.966 360.233 336.556 360.959 336.232 361.764C334.125 367.499 319.365 367.227 315.849 363.313C312.334 359.399 314.853 368.199 312.064 369.917C309.365 371.583 305.2 358.915 306.988 339.709C307.044 339.068 307.111 338.419 307.183 337.762C309.261 319.136 303.918 274.897 304.062 257.723C304.062 256.411 304.122 255.102 304.241 253.804C305.576 240.823 326.53 213.742 330.905 224.795C336.296 238.437 347.422 225.391 349.217 219.029C360.53 217.809 365.046 237.044 365.046 237.044L361.741 260.606Z" fill="#3F3D56"/>
<path d="M410.782 369.563C410.782 369.563 401.85 374.738 398.993 374.033C396.136 373.329 393.393 376.662 393.53 381.507C393.667 386.352 390.586 397.78 395.71 398.402C400.835 399.024 421.761 396.647 426.364 398.905C426.364 398.905 446.793 398.97 444.75 386.92C442.707 374.869 434.227 375.986 434.227 375.986C434.227 375.986 410.942 375.216 410.782 369.563Z" fill="#2F2E41"/>
<path d="M477.169 369.574C477.169 369.574 478.166 364.688 479.866 364.626C481.567 364.565 495.262 367.3 496.939 366.431C498.617 365.562 518.41 363.226 515.397 377.076C512.385 390.927 501.094 392.954 501.094 392.954C501.094 392.954 480.597 390.466 477.786 391.376C474.975 392.287 464.749 391.85 466.335 387.751C467.922 383.652 478.486 375.993 477.169 369.574Z" fill="#2F2E41"/>
<path d="M422.293 255.466L425.919 273.626C425.96 273.829 425.96 274.042 425.921 274.244L413.591 337.554C413.542 337.805 413.434 338.023 413.285 338.172C413.136 338.321 412.955 338.392 412.772 338.373C412.589 338.354 412.415 338.246 412.279 338.068C412.143 337.889 412.054 337.651 412.026 337.392L409.382 312.999C409.365 312.837 409.372 312.672 409.403 312.516L420.75 255.437C420.797 255.199 420.898 254.99 421.037 254.843C421.176 254.696 421.346 254.618 421.52 254.621C421.695 254.624 421.865 254.709 422.004 254.861C422.143 255.013 422.245 255.226 422.293 255.466Z" fill="#D0CDE1"/>
<path d="M420.368 258.085L423.682 273.659L412.86 331.372L409.488 313.753L420.368 258.085Z" fill="#F2F2F2"/>
<path d="M360.918 344.54C361.454 346.567 410.664 342.049 411.123 341.35C411.516 340.481 411.843 339.554 412.099 338.585C412.51 337.205 412.883 335.827 412.883 335.827L410.345 313.824L361.467 313.13C361.467 313.13 360.775 331.88 360.769 340.451C360.723 341.815 360.773 343.185 360.918 344.54Z" fill="#D0CDE1"/>
<path opacity="0.1" d="M404.208 317.035L405.704 336.088L384.171 336.87L383.631 317.783L404.208 317.035Z" fill="black"/>
<path opacity="0.1" d="M376.628 324.18L376.756 324.139L376.381 332.378L364.418 332.812L364.187 324.632L376.628 324.18Z" fill="black"/>
<path opacity="0.1" d="M360.918 344.54C361.454 346.568 410.664 342.049 411.123 341.35C411.516 340.482 411.843 339.555 412.098 338.585L360.769 340.451C360.722 341.816 360.772 343.185 360.918 344.54Z" fill="black"/>
<path d="M337.866 156.868C337.866 156.868 331.77 172.588 316.741 178.936C301.711 185.284 317.701 217.262 317.701 217.262C317.701 217.262 311.886 205.634 319.436 192.821C326.985 180.008 339.463 170.982 337.866 156.868Z" fill="#FF6584"/>
<path d="M338.359 155.908C338.359 155.908 345.237 176.946 352.185 178.706C359.133 180.466 359.561 214.088 348.927 219.518C348.927 219.518 356.228 199.533 349.137 186.566C342.047 173.599 337.508 163.309 338.359 155.908Z" fill="#FF6584"/>
<path opacity="0.1" d="M346.07 351.318C344.777 355.14 343.244 359.116 343.011 360.709C342.854 361.79 340.762 361.243 337.448 359.61C330.801 356.319 319.225 348.648 308.408 340.95C307.91 340.599 307.434 340.183 306.988 339.709C307.044 339.068 307.111 338.419 307.183 337.762C309.261 319.135 303.918 274.896 304.062 257.722L308.821 255.254L318.822 267.823L320.376 322.732C320.376 322.732 345.864 341.206 347.61 342.759C348.5 343.551 347.411 347.349 346.07 351.318Z" fill="black"/>
<path d="M365.877 306.529L381.501 317.278C381.501 317.278 390.182 303.221 396.147 313.512C402.112 323.803 380.098 327.837 380.098 327.837C380.098 327.837 360.643 322.077 359.825 313.216C359.007 304.354 365.877 306.529 365.877 306.529Z" fill="#FFB8B8"/>
<path d="M341.215 337.333L350.376 340.233C350.376 340.233 360.076 322.098 371.028 328.166C381.981 334.235 357.973 348.041 357.973 348.041C357.973 348.041 345.21 358.204 339.88 350.315C334.55 342.425 341.215 337.333 341.215 337.333Z" fill="#FFB8B8"/>
<path d="M358.039 230.025C358.629 230.812 365.046 237.045 365.046 237.045C365.046 237.045 367.615 267.668 365.53 274.21C363.446 280.752 361.745 280.814 363.537 283.982C365.329 287.15 367.527 284.646 365.42 290.38C363.313 296.115 361.023 295.39 362.792 297.751C364.561 300.111 364.017 300.94 364.017 300.94L371.047 308.767C371.047 308.767 367.142 318.388 361.84 317.883C356.538 317.378 350.976 281.206 350.976 281.206L358.039 230.025Z" fill="#3F3D56"/>
<path d="M309.262 249.26L304.229 251.868C304.229 251.868 292.636 323.421 308.849 334.956C325.063 346.492 342.977 357.965 343.452 354.715C343.928 351.464 349.797 338.318 348.051 336.765C346.305 335.212 320.817 316.738 320.817 316.738L319.264 261.829L309.262 249.26Z" fill="#3F3D56"/>
<path opacity="0.1" d="M317.193 280.412L317.155 319.212L347.768 338.308L319.423 319.13L317.193 280.412Z" fill="black"/>
</g>
<defs>
<clipPath id="clip0">
<rect width="600" height="450" fill="white" transform="translate(9)"/>
</clipPath>
</defs>
</svg>
